<?xml version="1.0" encoding="UTF-8"?>
<svg version="1.1" xmlns="http://www.w3.org/2000/svg" width="96" height="96">
<path d="M0 0 C7.01178678 5.87033312 11.48301638 11.54330929 12.3125 20.875 C13.07022043 32.99852687 12.83479882 48.71301057 4.6875 58.421875 C-2.94553525 65.89134521 -12.97331466 69.24784295 -23.5625 69.4375 C-34.646755 69.28891749 -45.56123946 65.52781496 -53.8359375 58.0078125 C-58.81857754 52.66541505 -61.39292485 48.303828 -61.75 40.9375 C-61.5953125 39.08125 -61.5953125 39.08125 -61.4375 37.1875 C-57.90949512 34.83549675 -56.43989322 34.94161801 -52.265625 34.95703125 C-51.04359375 34.95896484 -49.8215625 34.96089844 -48.5625 34.96289062 C-46.644375 34.98125977 -46.644375 34.98125977 -44.6875 35 C-42.79257812 35.0009668 -42.79257812 35.0009668 -40.859375 35.00195312 C-34.93719085 35.02994664 -29.29707924 35.25656051 -23.4375 36.1875 C-24.03045334 41.0497174 -25.47329983 44.75883419 -27.4375 49.1875 C-14.3590762 40.95085594 -14.3590762 40.95085594 -2.4375 31.1875 C-2.20421501 28.88418818 -2.20421501 28.88418818 -4.7109375 26.8671875 C-5.73888562 25.92580165 -6.77318094 24.99131675 -7.8125 24.0625 C-8.35036133 23.57547607 -8.88822266 23.08845215 -9.44238281 22.58666992 C-14.27722574 18.24769008 -19.29565137 14.15764419 -24.4375 10.1875 C-23.1175 13.4875 -21.7975 16.7875 -20.4375 20.1875 C-22.48792623 22.23792623 -26.73320888 21.46877424 -29.55859375 21.5390625 C-30.7812368 21.57379166 -30.7812368 21.57379166 -32.02857971 21.60922241 C-33.75604883 21.65693017 -35.48358797 21.70215578 -37.21118164 21.74511719 C-39.86045411 21.81213205 -42.50925942 21.88990506 -45.15820312 21.96875 C-46.833316 22.01367176 -48.50844592 22.05796357 -50.18359375 22.1015625 C-51.37739906 22.13740952 -51.37739906 22.13740952 -52.59532166 22.17398071 C-58.20775722 22.30237139 -58.20775722 22.30237139 -60.4375 21.1875 C-59.96423247 13.61521959 -56.8381168 8.18026575 -51.3125 3 C-36.88965205 -8.53199389 -15.43750598 -10.9889117 0 0 Z " fill="#ffdd55" transform="translate(71.4375,16.8125)"/>
<path d="M0 0 C7.01178678 5.87033312 11.48301638 11.54330929 12.3125 20.875 C13.07022043 32.99852687 12.83479882 48.71301057 4.6875 58.421875 C-2.94553525 65.89134521 -12.97331466 69.24784295 -23.5625 69.4375 C-34.646755 69.28891749 -45.56123946 65.52781496 -53.8359375 58.0078125 C-58.81857754 52.66541505 -61.39292485 48.303828 -61.75 40.9375 C-61.5953125 39.08125 -61.5953125 39.08125 -61.4375 37.1875 C-57.90949512 34.83549675 -56.43989322 34.94161801 -52.265625 34.95703125 C-51.04359375 34.95896484 -49.8215625 34.96089844 -48.5625 34.96289062 C-46.644375 34.98125977 -46.644375 34.98125977 -44.6875 35 C-42.79257812 35.0009668 -42.79257812 35.0009668 -40.859375 35.00195312 C-34.93719085 35.02994664 -29.29707924 35.25656051 -23.4375 36.1875 C-24.03045334 41.0497174 -25.47329983 44.75883419 -27.4375 49.1875 C-14.3590762 40.95085594 -14.3590762 40.95085594 -2.4375 31.1875 C-2.20421501 28.88418818 -2.20421501 28.88418818 -4.7109375 26.8671875 C-5.73888562 25.92580165 -6.77318094 24.99131675 -7.8125 24.0625 C-8.35036133 23.57547607 -8.88822266 23.08845215 -9.44238281 22.58666992 C-14.27722574 18.24769008 -19.29565137 14.15764419 -24.4375 10.1875 C-23.1175 13.4875 -21.7975 16.7875 -20.4375 20.1875 C-22.48792623 22.23792623 -26.73320888 21.46877424 -29.55859375 21.5390625 C-30.7812368 21.57379166 -30.7812368 21.57379166 -32.02857971 21.60922241 C-33.75604883 21.65693017 -35.48358797 21.70215578 -37.21118164 21.74511719 C-39.86045411 21.81213205 -42.50925942 21.88990506 -45.15820312 21.96875 C-46.833316 22.01367176 -48.50844592 22.05796357 -50.18359375 22.1015625 C-51.37739906 22.13740952 -51.37739906 22.13740952 -52.59532166 22.17398071 C-58.20775722 22.30237139 -58.20775722 22.30237139 -60.4375 21.1875 C-59.96423247 13.61521959 -56.8381168 8.18026575 -51.3125 3 C-36.88965205 -8.53199389 -15.43750598 -10.9889117 0 0 Z M-53.375 9.1875 C-55.42192897 12.16485123 -56.52587561 14.70675231 -57.4375 18.1875 C-53.91811924 18.98723292 -50.6649898 19.3158519 -47.05859375 19.3203125 C-45.55329102 19.32224609 -45.55329102 19.32224609 -44.01757812 19.32421875 C-42.98052734 19.32035156 -41.94347656 19.31648438 -40.875 19.3125 C-39.83408203 19.31636719 -38.79316406 19.32023437 -37.72070312 19.32421875 C-36.71845703 19.32292969 -35.71621094 19.32164063 -34.68359375 19.3203125 C-33.77279053 19.31918457 -32.8619873 19.31805664 -31.92358398 19.31689453 C-29.15376467 19.25241212 -29.15376467 19.25241212 -25.4375 18.1875 C-26.4275 13.5675 -27.4175 8.9475 -28.4375 4.1875 C-21.89482617 8.80092386 -15.74309354 13.50430503 -9.875 18.94921875 C-8.22087224 20.46815338 -6.53141076 21.9493161 -4.8125 23.39453125 C-3.9875 24.08933594 -3.1625 24.78414062 -2.3125 25.5 C-1.56742188 26.11488281 -0.82234375 26.72976562 -0.0546875 27.36328125 C1.5625 29.1875 1.5625 29.1875 1.5625 33.1875 C1.01335937 33.43371094 0.46421875 33.67992187 -0.1015625 33.93359375 C-2.91920754 35.44607545 -5.2863759 37.28792827 -7.8125 39.25 C-12.41744827 42.7404829 -17.0890794 46.04401149 -21.9375 49.1875 C-22.52450684 49.57301025 -23.11151367 49.95852051 -23.71630859 50.35571289 C-26.56269606 52.17777918 -29.07010962 53.6592819 -32.4375 54.1875 C-32.004375 53.20007813 -31.57125 52.21265625 -31.125 51.1953125 C-30.56230955 49.90112446 -29.99981995 48.60684907 -29.4375 47.3125 C-29.00824219 46.33603516 -29.00824219 46.33603516 -28.5703125 45.33984375 C-26.97824235 41.89111661 -26.97824235 41.89111661 -26.4375 38.1875 C-36.9975 38.1875 -47.5575 38.1875 -58.4375 38.1875 C-58.4375 46.93816758 -57.50061517 49.70224299 -51.93359375 55.84765625 C-43.2078563 64.06877274 -32.48099778 66.52979941 -20.85546875 66.3984375 C-10.39310675 65.7527603 -3.6010186 62.07190948 3.875 55 C8.34195194 47.5550801 9.14970058 38.70296226 9.5625 30.1875 C9.63855469 29.19492187 9.71460937 28.20234375 9.79296875 27.1796875 C10.19261966 18.73301147 8.41875544 12.55512844 2.765625 6.15234375 C-5.20399091 -1.35503444 -14.31414318 -4.20798501 -25.078125 -4.08984375 C-35.85130315 -3.20043021 -46.06940701 1.09840863 -53.375 9.1875 Z " fill="#060606" transform="translate(71.4375,16.8125)"/>
</svg>
